<svg id="Capa_1" enable-background="new 0 0 512 512" height="512" viewBox="0 0 512 512" width="512" xmlns="http://www.w3.org/2000/svg"><g><path d="m154.46 13.507c-70.001 11.743-131.668 66.765-152.519 144.583l65.695 17.603c.528-1.457 26.124-107.16 86.824-162.186z"/><path d="m349.075 251.105c20.851-77.817-5.043-156.301-59.794-201.472 25.105 78.156-5.884 183.77-5.901 183.869z"/><circle cx="452" cy="60" r="60"/><path d="m424.385 405.032-20.772-30.032h48.387v-30h-173.507l-40.63-67.717-25.725 15.435 49.369 82.282h26.879l-20.75 30h-133.645l53.69-197.141c33.898 9.082 64.733 17.345 66.722 17.878 27.779-103.674 14.974-197.177-28.597-208.852s-101.413 62.899-129.192 166.573c1.897.508 30.062 8.055 62.09 16.637l-55.806 204.905h-12.898c-49.626 0-90 40.374-90 90v17h512v-17c0-48.828-39.087-88.699-87.615-89.968zm-120.272-.032 20.75-30h42.273l20.75 30c-17.532 0-66.081 0-83.773 0z"/></g></svg>