<svg id="Layer_1" enable-background="new 0 0 512 512" height="512" viewBox="0 0 512 512" width="512" xmlns="http://www.w3.org/2000/svg"><g><g><path d="m379.198 106.235c13.308-11.015 21.802-27.651 21.802-46.235 0-33.084-26.916-60-60-60s-60 26.916-60 60c0 15.355 5.805 29.376 15.327 40h-80.653c9.521-10.624 15.326-24.645 15.326-40 0-33.084-26.916-60-60-60s-60 26.916-60 60c0 18.584 8.494 35.22 21.802 46.234-47.498 15.99-81.802 60.946-81.802 113.766v110 172c0 5.523 4.477 10 10 10s10-4.477 10-10v-162h30v41.996c0 5.523 4.477 10 10 10h50v110.004c0 5.523 4.477 10 10 10h60c5.523 0 10-4.477 10-10v-162h30v162c0 5.523 4.477 10 10 10h120c5.523 0 10-4.477 10-10v-162h40c5.523 0 10-4.477 10-10v-110c0-52.82-34.304-97.775-81.802-113.765zm-78.198-46.235c0-22.056 17.944-40 40-40s40 17.944 40 40-17.944 40-40 40-40-17.944-40-40zm-130-40c22.056 0 40 17.944 40 40s-17.944 40-40 40-40-17.944-40-40 17.944-40 40-40zm50 472h-40v-110.004-51.996c0-5.523-4.477-10-10-10s-10 4.477-10 10v41.996h-40v-41.996-110c0-5.523-4.477-10-10-10s-10 4.477-10 10v100h-30v-100c0-55.14 44.86-100 100-100s100 44.86 100 100v100h-30v-55c0-5.523-4.477-10-10-10s-10 4.477-10 10v65zm220-172h-30v-100c0-5.523-4.477-10-10-10s-10 4.477-10 10v110 162h-40v-162c0-5.523-4.477-10-10-10s-10 4.477-10 10v162h-40v-162-110c0-41.694-21.379-78.484-53.746-100h103.746c55.14 0 100 44.86 100 100z"/><path d="m231 230c5.523 0 10-4.477 10-10s-4.477-10-10-10h-.008c-5.523 0-9.996 4.477-9.996 10s4.481 10 10.004 10z"/></g></g></svg>